<?xml version="1.0" encoding="UTF-8"?><svg id="Layer_2" xmlns="http://www.w3.org/2000/svg" viewBox="0 0 357.23 117.1"><defs><style>.cls-1{fill:#1d1d1b;}</style></defs><g id="Ebene_1"><g><path class="cls-1" d="m159.35,27.56c-10.06,0-15.13,4.58-17.56,8.14l-.15-6.7h-18.14v.51c.13,4.58.13,10.45.13,15.63v46.96h18.2v-33.11c0-10.3,3.7-15.53,10.99-15.53,6.69,0,9.41,3.05,9.41,10.54v38.1h18.2v-40.01c0-15.37-7.88-24.54-21.08-24.54Z"/><path class="cls-1" d="m229.38,33.95c-1.97-2.94-6.67-6.39-15.57-6.39-16.03,0-27.66,13.97-27.66,33.21s10.52,30.6,26.19,30.6c7.86,0,13.31-2.41,17-7.56v1.3c0,11.99-2.03,18.48-12.76,18.48-5.77,0-9.2-2.23-10.5-6.81l-.1-.36h-18.45l.05.54c.51,6.05,4.3,20.13,28.24,20.13,21.71,0,31.38-10.19,31.38-33.05l.13-55.05h-17.87l-.09,4.95Zm.51,25.51c0,11.94-3.77,17.03-12.62,17.03-7.56,0-12.45-6.47-12.45-16.49,0-11.06,4.79-17.67,12.81-17.67,10.25,0,12.25,6.28,12.25,17.13Z"/><path class="cls-1" d="m272.65,35.53v-6.53s-18.32,0-18.32,0l.12,63.11h18.2v-27.58c0-7.54,1.5-12.67,4.59-15.68,2.95-2.87,7.51-4.07,14.83-3.88h.51s0-17.41,0-17.41h-.5c-10.4.06-15.74,2.18-19.42,7.98Z"/><path class="cls-1" d="m339.04,27.56l-.1.37c-8.27,31.54-11.08,42.31-11.97,46.07-.88-3.77-3.68-14.58-11.91-46.29l-.1-.37h-19.51l22.14,66.31c.16.61.05,1.12-.32,1.59-2.13,2.63-11.87,2.76-15.44,2.59l-.52-.03v18.79l.44.05c2.94.34,6.54.47,8.11.47.71,0,1.39-.01,2.06-.04,14.31-.53,18.86-7.36,24.23-23.51l21.08-65.99h-18.19Z"/><path class="cls-1" d="m170.89,21.37c-.11-.12-.22-.25-.34-.38,0,0-.01.01-.02.02.08.28.21.36.36.36Z"/><path class="cls-1" d="m35.71,27.56c-10.01,0-15.08,4.54-17.52,8.08l-.04-35.64H0v92.11h18.2v-33.11c0-10.3,3.7-15.53,10.99-15.53,6.69,0,9.41,3.05,9.41,10.54v38.1h18.2v-40.01c0-15.37-7.88-24.54-21.08-24.54Z"/><rect class="cls-1" x="96.45" y="4.46" width="16.68" height="18.41"/><rect class="cls-1" x="67.83" y="4.46" width="16.68" height="18.41"/><path class="cls-1" d="m91.15,26.11c-.11,0-.21,0-.31,0-11.53,0-25.41,3.56-26.83,20.32l-.05.54h17.32l.07-.41c.82-4.65,2.52-7.17,9.15-7.17,8.12,0,9.06,4.71,9.06,8.26v3.3h-8.36c-19.39,0-30.07,7.52-30.07,21.18,0,2.69.49,5.3,1.45,7.75l.07.18.17.09c.68.34,1.28.79,1.81,1.32l.25.26.32-.16c2.29-1.14,5.12-.8,7.06.81l.28.23.3-.19c1-.62,2.15-.94,3.31-.94,2.96,0,5.56,2.09,6.2,4.98l.13.58.55-.22c.85-.34,1.73-.52,2.63-.52,2.66,0,5.06,1.48,6.27,3.86l.21.41.43-.18c3.64-1.5,5.87-3.77,7.31-5.7l.03,7.41,17.42.02v-44.11c0-14.62-8.57-21.78-26.19-21.89Zm8.43,36.28v1.13c0,9.19-2,15.3-11.77,15.3-5.29,0-8.44-2.91-8.44-7.78,0-6.06,4.1-8.65,13.71-8.65h6.51Z"/></g></g></svg>