<?xml version="1.0" standalone="no"?>
<!DOCTYPE svg PUBLIC "-//W3C//DTD SVG 20010904//EN"
 "http://www.w3.org/TR/2001/REC-SVG-20010904/DTD/svg10.dtd">
<svg version="1.0" xmlns="http://www.w3.org/2000/svg"
 width="1408.000000pt" height="1408.000000pt" viewBox="0 0 1408.000000 1408.000000"
 preserveAspectRatio="xMidYMid meet">
<metadata>
Created by potrace 1.14, written by Peter Selinger 2001-2017
</metadata>
<g transform="translate(0.000000,1408.000000) scale(0.100000,-0.100000)"
fill="#000000" stroke="none">
<path d="M3609 14073 c-1 -5 -2 -668 -3 -1475 -1 -1000 2 -1469 9 -1472 6 -2
35 -3 65 -2 30 1 61 -2 69 -8 11 -8 13 -8 8 0 -5 8 8 10 46 7 28 -2 57 -4 62
-3 78 6 203 4 213 -3 6 -5 12 -6 12 -1 0 11 170 11 188 0 6 -4 12 -4 12 1 0
11 241 10 259 -1 9 -6 12 -5 8 1 -5 7 11 9 46 6 28 -2 57 -4 62 -4 99 7 193 5
204 -3 11 -8 13 -8 8 0 -5 8 8 10 46 7 28 -2 57 -4 62 -3 78 6 203 4 213 -3 6
-5 12 -6 12 -1 0 12 121 11 139 0 9 -6 12 -5 8 1 -5 7 11 9 46 6 28 -2 57 -4
62 -3 78 6 203 4 213 -3 6 -5 12 -6 12 -1 0 11 131 11 148 0 7 -4 12 -4 12 1
0 11 121 10 139 -1 9 -6 12 -5 8 1 -5 7 11 9 46 6 28 -2 57 -4 62 -4 6 1 48 2
95 4 l85 3 1 1477 0 1477 -1338 0 c-736 0 -1338 -3 -1339 -7z"/>
<path d="M8205 12604 c0 -1435 1 -1476 19 -1486 12 -7 16 -7 13 0 -5 6 12 8
46 5 28 -2 57 -4 62 -3 78 6 203 4 213 -3 6 -5 12 -6 12 -1 0 11 170 11 188 0
6 -4 12 -4 12 1 0 11 241 10 259 -1 9 -6 12 -5 8 1 -5 7 11 9 46 6 28 -2 57
-4 62 -4 99 7 193 5 204 -3 11 -8 13 -8 8 0 -5 8 8 10 46 7 28 -2 57 -4 62 -3
77 6 243 4 253 -3 6 -5 12 -6 12 -1 0 11 250 11 268 0 6 -4 12 -4 12 1 0 11
121 10 139 -1 9 -6 12 -5 8 1 -5 7 11 9 46 6 28 -2 57 -4 62 -3 78 6 203 4
213 -3 6 -5 12 -6 12 -1 0 11 170 11 188 0 6 -4 12 -4 12 1 0 4 43 8 95 7 60
0 95 3 97 10 2 6 3 670 3 1476 l-1 1465 -1340 3 -1339 2 0 -1476z"/>
<path d="M7135 10602 c-1 -2 -72 -5 -156 -7 -85 -2 -181 -7 -214 -9 -33 -3
-94 -8 -135 -11 -110 -9 -230 -21 -289 -30 -20 -3 -56 -7 -81 -10 -46 -6 -85
-12 -130 -20 -14 -2 -43 -7 -65 -10 -23 -3 -52 -8 -65 -11 -14 -3 -37 -7 -51
-8 -14 -2 -31 -6 -38 -10 -7 -5 -15 -5 -18 -2 -3 3 -13 1 -22 -4 -9 -4 -37
-11 -61 -15 -25 -4 -47 -8 -50 -10 -3 -2 -21 -6 -40 -9 -19 -3 -93 -22 -165
-42 -71 -20 -134 -37 -140 -38 -5 -2 -17 -6 -25 -9 -8 -3 -44 -15 -80 -25 -36
-11 -90 -30 -120 -42 -30 -12 -57 -22 -60 -22 -9 -1 -126 -47 -200 -79 -201
-87 -582 -301 -612 -344 -4 -5 -8 -7 -8 -2 0 4 -9 -1 -19 -10 -35 -32 -50 -43
-58 -43 -5 0 -15 -9 -23 -20 -8 -11 -20 -20 -27 -20 -7 0 -18 -9 -25 -20 -7
-11 -17 -20 -23 -20 -6 0 -18 -8 -27 -17 -8 -10 -42 -40 -73 -68 -100 -87
-184 -173 -323 -335 -29 -33 -133 -174 -154 -208 -12 -20 -25 -39 -28 -42 -4
-3 -10 -12 -13 -20 -4 -8 -15 -27 -25 -42 -42 -65 -159 -279 -167 -308 -1 -3
-12 -27 -24 -55 -12 -27 -28 -63 -36 -80 -59 -132 -166 -479 -181 -584 -2 -18
-7 -37 -10 -42 -3 -5 -7 -19 -9 -32 -2 -12 -8 -49 -14 -82 -6 -33 -13 -73 -15
-90 -3 -16 -7 -43 -10 -60 -12 -72 -21 -149 -31 -265 -3 -41 -8 -85 -10 -97
l-5 -22 1377 0 c758 0 1386 2 1395 5 11 3 19 20 23 52 4 26 11 63 16 82 4 19
11 53 15 75 3 22 8 43 11 47 2 5 6 16 8 26 1 9 9 37 16 62 7 25 12 49 10 54
-1 4 2 13 7 20 10 12 26 67 24 79 -1 4 2 7 8 7 5 0 10 7 10 16 0 22 73 164
119 232 76 112 227 247 326 291 11 5 47 21 79 36 33 15 66 28 73 29 7 1 16 5
19 9 4 4 18 7 31 7 13 0 23 4 23 8 0 4 8 8 18 9 10 1 45 8 78 17 32 8 78 17
102 20 23 3 61 9 85 12 23 4 70 7 104 8 35 0 63 4 63 7 0 8 439 3 515 -5 59
-7 100 -13 100 -16 0 -1 16 -3 35 -5 19 -2 44 -5 55 -8 11 -2 38 -8 60 -12 44
-9 53 -11 60 -15 6 -3 6 -3 55 -14 19 -5 40 -11 45 -14 6 -4 15 -7 20 -8 6 -1
24 -8 40 -15 17 -7 32 -13 35 -14 19 -4 146 -71 148 -77 2 -4 8 -8 13 -8 36 0
218 -166 279 -255 19 -27 37 -52 40 -55 5 -5 63 -123 81 -165 33 -75 85 -288
74 -305 -3 -5 -1 -11 4 -15 5 -3 10 -13 9 -23 0 -9 3 -55 6 -102 5 -69 10
-529 7 -682 l-1 -37 -807 -1 c-445 0 -860 -3 -923 -5 -249 -9 -460 -23 -620
-40 -19 -2 -62 -7 -95 -10 -62 -5 -119 -13 -169 -21 -16 -3 -50 -7 -75 -9 -25
-2 -46 -5 -46 -5 0 -2 -27 -7 -85 -15 -30 -4 -62 -8 -70 -10 -8 -1 -33 -6 -55
-9 -22 -4 -47 -9 -55 -11 -8 -3 -32 -7 -54 -9 -21 -3 -46 -8 -55 -10 -9 -3
-29 -7 -44 -10 -60 -10 -183 -38 -207 -46 -14 -5 -38 -11 -55 -14 -16 -3 -44
-9 -62 -14 -17 -6 -34 -8 -37 -4 -3 3 -6 -1 -6 -8 0 -7 -3 -11 -6 -8 -3 4 -20
2 -37 -3 -18 -6 -43 -12 -56 -15 -13 -3 -32 -9 -43 -15 -10 -5 -18 -7 -18 -3
0 3 -7 0 -17 -7 -9 -8 -18 -13 -20 -11 -5 5 -64 -9 -83 -19 -8 -4 -49 -19 -90
-33 -100 -33 -230 -81 -282 -105 -24 -10 -77 -33 -118 -51 -123 -53 -345 -169
-432 -226 -21 -13 -42 -24 -48 -24 -5 0 -10 -4 -10 -10 0 -5 -7 -10 -15 -10
-8 0 -15 -4 -15 -9 0 -5 -10 -13 -22 -17 -13 -4 -25 -10 -28 -13 -3 -4 -43
-34 -90 -66 -47 -32 -89 -65 -93 -72 -4 -7 -14 -13 -22 -13 -7 0 -15 -4 -17
-9 -1 -4 -34 -35 -73 -67 -88 -74 -255 -239 -326 -324 -30 -36 -56 -67 -59
-70 -9 -8 -93 -122 -120 -162 -14 -21 -29 -38 -33 -38 -5 0 -6 -4 -2 -9 3 -5
0 -15 -7 -23 -19 -19 -68 -96 -68 -106 0 -4 -11 -23 -25 -42 -13 -18 -22 -37
-20 -41 3 -4 1 -10 -4 -14 -9 -5 -74 -130 -77 -145 0 -3 -11 -27 -23 -55 -38
-83 -61 -145 -55 -145 4 0 2 -6 -3 -12 -10 -14 -31 -70 -59 -163 -18 -61 -19
-65 -27 -100 -3 -11 -10 -38 -16 -60 -5 -22 -13 -56 -16 -75 -3 -19 -11 -55
-17 -80 -5 -25 -12 -63 -14 -85 -2 -21 -7 -51 -9 -65 -3 -14 -7 -43 -9 -65 -3
-22 -8 -76 -13 -120 -17 -164 -9 -638 14 -790 2 -16 6 -43 8 -60 2 -16 6 -43
9 -60 4 -16 9 -46 12 -65 3 -19 14 -71 25 -115 10 -44 21 -91 23 -105 3 -14 5
-26 7 -27 1 -2 3 -7 4 -13 1 -5 3 -11 5 -12 1 -2 3 -12 5 -22 2 -10 11 -42 20
-70 10 -28 18 -55 20 -61 1 -5 5 -17 8 -25 3 -8 20 -56 38 -105 31 -88 33 -91
80 -114 27 -13 49 -27 49 -32 0 -5 3 -8 8 -7 16 5 125 -78 209 -160 46 -44 57
-49 68 -32 4 6 11 8 16 5 5 -4 9 -2 9 2 0 15 176 78 243 88 23 4 44 8 47 10 7
4 128 14 180 16 40 0 155 -9 185 -16 11 -3 38 -9 60 -14 22 -4 52 -13 68 -19
15 -7 27 -9 27 -6 0 4 11 -1 25 -10 13 -9 30 -16 36 -16 16 0 123 -53 127 -62
2 -5 8 -8 14 -8 6 0 46 -27 89 -60 43 -33 81 -60 84 -60 3 0 24 12 48 27 23
15 44 28 47 28 3 1 35 16 72 33 36 18 73 32 80 32 8 0 18 3 22 7 4 5 12 9 17
9 5 1 10 2 12 4 1 1 11 3 22 5 11 2 32 6 46 9 123 27 310 28 424 2 110 -26
309 -110 336 -142 6 -8 16 -14 21 -14 5 0 15 -6 22 -12 8 -7 24 -20 36 -28 56
-38 210 -204 210 -226 0 -7 4 -14 9 -16 27 -10 127 -228 145 -318 3 -14 9 -42
15 -62 5 -20 6 -40 2 -43 -3 -4 5 -5 19 -3 14 1 27 5 30 8 6 6 128 50 154 55
10 3 33 9 50 14 29 9 83 19 151 27 61 7 270 3 270 -6 0 -1 16 -3 35 -5 74 -8
223 -56 315 -102 154 -78 308 -207 400 -337 11 -15 25 -34 30 -40 12 -15 30
-45 67 -116 35 -65 49 -84 57 -73 7 9 59 35 79 39 25 5 342 168 342 176 0 4 6
8 14 8 11 0 251 162 266 179 3 4 30 26 60 51 63 52 63 52 162 147 42 40 102
102 134 139 33 37 69 78 82 91 12 13 22 26 22 28 0 3 9 15 20 27 10 13 25 31
32 41 11 14 13 -46 13 -345 0 -200 3 -373 7 -386 5 -13 5 -21 0 -19 -6 5 -8
-111 -2 -138 1 -5 1 -14 0 -20 -1 -5 -1 -37 -1 -70 1 -33 1 -78 0 -100 -1 -41
0 -53 3 -80 1 -13 164 -15 1399 -15 l1397 0 -3 3718 c-1 2044 -5 3733 -8 3752
-3 19 -8 67 -11 105 -13 147 -37 319 -60 428 -3 15 -8 37 -10 50 -9 42 -16 72
-26 118 -6 26 -13 53 -14 60 -2 8 -5 21 -8 29 -3 8 -11 35 -18 60 -25 88 -33
115 -41 135 -4 11 -19 53 -33 93 -14 40 -34 92 -44 115 -21 46 -35 79 -37 87
-7 29 -156 304 -167 308 -4 2 -8 8 -8 13 0 14 -85 138 -171 249 -40 52 -134
156 -209 230 -147 147 -168 165 -280 249 -41 31 -76 59 -78 64 -2 4 -8 7 -14
7 -6 0 -33 16 -59 35 -27 19 -54 35 -59 35 -6 0 -10 4 -10 9 0 5 -10 13 -22
17 -13 4 -25 9 -28 13 -18 23 -329 177 -470 233 -176 71 -433 157 -518 173
-10 2 -17 4 -17 6 0 1 -9 3 -20 5 -11 2 -38 8 -60 14 -22 6 -50 13 -62 15 -11
1 -30 6 -41 9 -11 4 -31 9 -44 11 -13 3 -45 9 -73 15 -96 20 -105 21 -215 40
-74 12 -127 20 -175 26 -22 2 -54 7 -71 10 -17 2 -56 7 -85 9 -30 3 -74 8 -99
11 -25 4 -65 7 -90 9 -25 2 -81 6 -125 9 -159 13 -233 16 -434 21 -111 3 -207
8 -212 11 -5 3 -9 -1 -9 -8 0 -8 -3 -9 -8 -3 -9 12 -72 14 -72 2 0 -4 -5 -5
-11 -1 -12 7 -88 12 -94 6z m1569 -6077 c-1 -138 -5 -304 -9 -370 -4 -66 -9
-138 -10 -160 -2 -22 -4 -40 -5 -40 0 0 -3 -25 -5 -55 -3 -30 -7 -73 -10 -95
-4 -22 -8 -53 -10 -70 -2 -16 -6 -49 -9 -72 -3 -23 -11 -64 -17 -90 -6 -26
-13 -61 -15 -78 -2 -16 -15 -70 -29 -120 -14 -49 -27 -100 -30 -111 -3 -12
-12 -39 -21 -60 -9 -22 -16 -41 -16 -44 0 -3 -4 -15 -9 -28 -5 -13 -9 -26 -9
-28 0 -3 -24 -56 -54 -117 -177 -368 -449 -608 -834 -737 -106 -36 -135 -44
-197 -55 -11 -2 -31 -6 -45 -10 -33 -7 -65 -13 -120 -20 -25 -3 -58 -8 -73
-11 -131 -22 -490 -22 -647 0 -117 16 -286 62 -380 103 -63 27 -181 91 -190
102 -3 3 -18 13 -34 21 -75 38 -256 241 -311 350 -10 19 -21 37 -24 40 -8 6
-22 44 -56 150 -15 47 -30 92 -33 100 -3 8 -7 24 -8 35 -2 11 -7 36 -10 55
-11 54 -12 67 -19 185 -4 61 -9 113 -12 118 -2 4 -1 7 4 7 4 0 8 26 9 58 1
102 13 195 39 299 53 211 135 361 273 501 62 63 202 172 220 172 7 0 12 4 12
8 0 10 195 105 216 105 8 0 14 5 14 10 0 6 3 7 7 4 3 -4 12 -2 19 3 6 6 20 13
30 15 11 2 46 14 79 25 33 12 71 24 85 27 14 2 43 9 65 15 22 5 51 12 65 14
14 3 32 7 40 10 8 3 30 7 47 10 18 2 53 8 78 14 26 6 51 8 56 5 5 -4 9 -3 9 2
0 4 10 9 23 9 42 3 132 12 132 14 0 1 23 4 50 6 28 2 73 5 100 8 28 2 124 8
215 11 91 4 166 8 167 9 1 0 271 1 600 1 l598 -1 -1 -249z"/>
</g>
</svg>
